/* XPM */
static char *dd2780642d4840bf99eaf7591f8d5ff0[] = {
/* columns rows colors chars-per-pixel */
"32 32 256 2 ",
"   c #1F0C0C",
".  c #2D1C09",
"X  c #241506",
"o  c #321B02",
"O  c #391702",
"+  c #3B2405",
"@  c #412607",
"#  c #4C2B04",
"$  c #422D0A",
"%  c #452B03",
"&  c #532D00",
"*  c #493A0C",
"=  c #4D3505",
"-  c #553205",
";  c #5C3503",
":  c #5E3B04",
">  c #583909",
",  c #412A11",
"<  c #473711",
"1  c #5F3D19",
"2  c #712801",
"3  c #643C03",
"4  c #673D0A",
"5  c #773503",
"6  c #56430C",
"7  c #4B4014",
"8  c #524216",
"9  c #624506",
"0  c #6B4504",
"q  c #6E4C07",
"w  c #6A4C09",
"e  c #674809",
"r  c #724603",
"t  c #744A02",
"y  c #7B4D02",
"u  c #7A4F0A",
"i  c #714A0C",
"p  c #6A520B",
"a  c #7D5201",
"s  c #74590C",
"d  c #7B5A0D",
"f  c #7B560A",
"g  c #664614",
"h  c #6A5012",
"j  c #7C5D13",
"k  c #705714",
"l  c #7A6109",
"z  c #756614",
"x  c #7A6715",
"c  c #7D7614",
"v  c #755C22",
"b  c #766023",
"n  c #893F06",
"m  c #814300",
"M  c #944202",
"N  c #845401",
"B  c #855B03",
"V  c #8C5E02",
"C  c #835D0C",
"Z  c #8C5D0C",
"A  c #805608",
"S  c #9F5B08",
"D  c #805D13",
"F  c #885F17",
"G  c #A35904",
"H  c #8E6101",
"J  c #8C6A0C",
"K  c #87640E",
"L  c #936505",
"P  c #996E05",
"I  c #95670B",
"U  c #926B0C",
"Y  c #9B6F0D",
"T  c #986104",
"R  c #96710C",
"E  c #9B750D",
"W  c #9D7006",
"Q  c #8B6C11",
"!  c #8B6D1D",
"~  c #876918",
"^  c #9E6F15",
"/  c #8B7714",
"(  c #8A7A18",
")  c #937216",
"_  c #9E7A19",
"`  c #977718",
"'  c #A56907",
"]  c #A57C0D",
"[  c #A97B07",
"{  c #B97605",
"}  c #A37412",
"|  c #A27C16",
" . c #A7691A",
".. c #916921",
"X. c #8A6822",
"o. c #C27D08",
"O. c #917E57",
"+. c #8F8113",
"@. c #8C851A",
"#. c #948115",
"$. c #9B811A",
"%. c #958B16",
"&. c #9A9118",
"*. c #AB810E",
"=. c #AC8507",
"-. c #BC840E",
";. c #B78D0E",
":. c #B3870A",
">. c #A58314",
",. c #AD8D14",
"<. c #A48C1C",
"1. c #AB8111",
"2. c #B68914",
"3. c #AB9315",
"4. c #A5931A",
"5. c #AA961A",
"6. c #BC9316",
"7. c #B59719",
"8. c #BE950A",
"9. c #BAA314",
"0. c #B4A419",
"q. c #BAA01C",
"w. c #B6AC1A",
"e. c #BBB41C",
"r. c #ABA51C",
"t. c #928B23",
"y. c #998626",
"u. c #93912B",
"i. c #8C8D27",
"p. c #AB8C20",
"a. c #A89C26",
"s. c #B59523",
"d. c #B99A27",
"f. c #AF9433",
"g. c #B08727",
"h. c #B6AB26",
"j. c #BBB627",
"k. c #A5A52A",
"l. c #C89409",
"z. c #C59A13",
"x. c #C39D1C",
"c. c #C99617",
"v. c #C68203",
"b. c #D6A30C",
"n. c #DFB105",
"m. c #CAA416",
"M. c #C3A51D",
"N. c #CEA619",
"B. c #CCA91C",
"V. c #C5A717",
"C. c #D3AB15",
"Z. c #DAA71B",
"A. c #D3AC19",
"S. c #D7A315",
"D. c #CEB616",
"F. c #C3B018",
"G. c #CCBF19",
"H. c #C7B71B",
"J. c #D7BC16",
"K. c #DCB519",
"L. c #D7B51A",
"P. c #F5B50F",
"I. c #E9BA15",
"U. c #E4B509",
"Y. c #D19436",
"T. c #C6A927",
"R. c #DFAC24",
"E. c #C8B925",
"W. c #DABA20",
"Q. c #D7BA28",
"!. c #C1AF38",
"~. c #C7B738",
"^. c #DABF35",
"/. c #DAB939",
"(. c #E2BD23",
"). c #E3BF35",
"_. c #CBC61C",
"`. c #D3C419",
"'. c #DBC21A",
"]. c #D6D11E",
"[. c #DEDB1C",
"{. c #DFD518",
"}. c #EDC31B",
"|. c #E6CF1B",
" X c #EAC315",
".X c #F2C918",
"XX c #E9D81C",
"oX c #F1DB1A",
"OX c #FBD51C",
"+X c #E6E11C",
"@X c #ECE11C",
"#X c #EDEB1C",
"$X c #EDE117",
"%X c #F3ED1A",
"&X c #FFEB1A",
"*X c #F4E619",
"=X c #F5F31D",
"-X c #FCF41B",
";X c #FEFE1C",
":X c #C9C723",
">X c #DCCB21",
",X c #D6C826",
"<X c #D4D124",
"1X c #DAD622",
"2X c #D6D32D",
"3X c #DBD832",
"4X c #E3C420",
"5X c #E7C828",
"6X c #FEDC20",
"7X c #F7D422",
"8X c #EAC938",
"9X c #ECD134",
"0X c #F2CB38",
"qX c #E5E123",
"wX c #EDEC2C",
"eX c #EAE528",
"rX c #F9E727",
"tX c #F6EE21",
"yX c #EAFD2F",
"uX c #F6F423",
"iX c #FFFE23",
"pX c #FFFF2A",
"aX c #F4F72C",
"sX c #FFE538",
"dX c #ECEA3C",
"fX c #918C51",
"gX c #BFA145",
"hX c #A09270",
"jX c #CBB868",
"kX c #D6C75D",
"lX c #E0C448",
"zX c #F7D356",
"xX c #FCEF4A",
"cX c #FFFE42",
"vX c #FFF543",
"bX c #FBE857",
"nX c #F5F05A",
"mX c #DBD173",
"MX c #E6DE61",
"NX c #F9DA74",
"BX c #FDE861",
"VX c #FBF26C",
"CX c #FFE675",
"ZX c #FCFC7C",
"AX c #F7DC80",
"SX c #FDF385",
"DX c #F2F180",
"FX c #FFEC9F",
"GX c #FFF092",
"HX c #FCE784",
"JX c #FEE8A6",
"KX c #F7FFA0",
"LX c #FFEEBA",
"PX c #FFEEC5",
"IX c #FFF4C6",
"UX c None",
/* pixels */
"UXUXUXUXUXUXUXUXUXUXUXUXUXUXUXUXUXUXUXUXUXUXUXUXUXUXUXUXUXUXUXUX",
"UXUXUXUXUXUXUXUXUXUXUXUXUXUXUXUXUXUXUXUXUXUXUXUXUXUXUXUXUXUXUXUX",
"UXUXUXUXUXUXUXUXUXUXUX$.p p p q w d 9 = A UXUXUXUXUXUXUXUXUXUXUX",
"UXUXUXUXUXUXUXUXUXx 6 4.4XV.J w 0 N 3 Y 9 C U UXUXUXUXUXUXUXUXUX",
"UXUXUXUXUXUXUXw.< |.4X>.q.s p = w T @ . A y J U B.UXUXUXUXUXUXUX",
"UXUXUXUXUXUX( +.{.'.<.W.K.V.8.[ P a 3 0 @ 4 q :.C M.UXUXUXUXUXUX",
"UXUXUXUXUXc H._.`.q.oX5XW.6.;.=.L ] >.d.Y 4 C w E ~ M.UXUXUXUXUX",
"UXUXUXUXr.9.`.%XXX-X'.4Xx.N.) E Y B A # ` /.H p C *.K 5XUXUXUXUX",
"UXUXUXwXz _.+X%X+XXX XB.x.B.3.:.W C C B i t /.] s U m.Q UXUXUXUX",
"UXUXUXc =X=Xw.%X@XF.2.A.Q.'.m.=.W V B 0 u K u !.-.>.z.) q.UXUXUX",
"UXUX3X5.e.=X=X,X-X&X|.6X5X^.Q.T.s.y.X.0 e r y ' !.8.E z.j UXUXUX",
"UXUX@.pX+X_.,X;X*XyXyXrXv.S a y c.Z.S.R.8XxXSX..>.7.] ,.k `.UXUX",
"UXUX( e.<XaX:XD.2 { S o.^ + o $.fX- R.DXZXlXMXKX^ ~.Y z.N.+.UXUX",
"UXdX5.qXe.2X>X5 B.M G n C = VXHXFXPXj ^ 8XZXkXQ.nXf.6.C.6.x UXUX",
"UXk.eXH.uXj.V.{ b.U.I.{ 0 AXBXSXGXIXCXF e f...T.nXd.T.} A.* UXUX",
"UXi.iXE.e.j.iX X.X.XrX{ p r gX% b C h lXmX& ^.xX6.1.h.R m.< pXUX",
"UXu.pX:XqXj.;X=X}.I.b.S.! 6 F jXfXn.v 8XVXnXbXg.V *.7.7.K., iXUX",
"UXu.pXqX<Xh.iX;X-XK.S.v.d.0Xd.; /.jXLXzX4XI.} a H ] 3.>.C.< UXUX",
"UXj.2X1XiXk.iX;X-X-X(.l._ sXd.B hXJXFXY.C.I t a B Q s.s ;.7 UXUX",
"UXcX&.a.&.eX<X;X;X-X-X).m P.I.<.CXNXNXb.K r a t y <.B R *.( UXUX",
"UXUX@.wX<XqXa.;X+X+X$XXX/.# OXvXFXbXm.K t r r r B $.[ f >.` UXUX",
"UXUXt.iX<X_.j.%X;X#XXXXX7X5X1 & V | L a t r 3 3 C W q I 8 K.UXUX",
"UXUXcX%.j.iX1X@.;X=XG.&X6X7X9X .Z.;.B a t ..; 3 U r * } _ UXUXUX",
"UXUXUXt.pX&.iXuXc {.4.4.`.6X7X5XQ.M.f i D - - 0 - $ N ( 6.UXUXUX",
"UXUXUXUXz pX0.<X[.c ;XF.3.F._ x.T.<.D D 0 # O - + > ! 2.UXUXUXUX",
"UXUXUXUX2X%.iXw.$X;X%.&.$X&XN.M.T.q.L 0 X @ O + @ g s.UXUXUXUXUX",
"UXUXUXUXUX:X4.;Xe.$X%X*X%.#./ l s 6 + - ; + X X g d.4 UXUXUXUXUX",
"UXUXUXUXUXUX<X#.;Xw.G.e.J.J..XK.N.U w 0 + X o ! p.UXUXUXUXUXUXUX",
"UXUXUXUXUXUXUXwX5.9.$X`.D./ ,.z J > = : O j T.g UXUXUXUXUXUXUXUX",
"UXUXUXUXUXUXUXUXUX>X3.E J. X XL.z.] [ U M.s   UXUXUXUXUXUXUXUXUX",
"UXUXUXUXUXUXUXUXUXUXUXtX9.>.E Q B t 0 w UXUXUXUXUXUXUXUXUXUXUXUX",
"UXUXUXUXUXUXUXUXUXUXUXUXUXUXUXUXUXUXUXUXUXUXUXUXUXUXUXUXUXUXUXUX"
};
