/* XPM */
static char *c2802ccc6c054674e9dba0428b0c4d18[] = {
/* columns rows colors chars-per-pixel */
"16 16 171 2 ",
"   c #271605",
".  c #3D2304",
"X  c #3E2806",
"o  c #372309",
"O  c #4C3707",
"+  c #5B3200",
"@  c #5D3B00",
"#  c #5D3A05",
"$  c #593F04",
"%  c #5F3F05",
"&  c #5B3408",
"*  c #5B3A08",
"=  c #603D03",
"-  c #643F07",
";  c #5F480A",
":  c #634E0C",
">  c #754C01",
",  c #714905",
"<  c #724A07",
"1  c #7D4F01",
"2  c #784F06",
"3  c #724708",
"4  c #724D0B",
"5  c #7C530B",
"6  c #79560A",
"7  c #78540F",
"8  c #755616",
"9  c #7C5319",
"0  c #825300",
"q  c #815403",
"w  c #8C5407",
"e  c #815B0A",
"r  c #885F08",
"t  c #866007",
"y  c #8E6405",
"u  c #8F6707",
"i  c #8E630A",
"p  c #8F640B",
"a  c #88650D",
"s  c #88660D",
"d  c #8B6A0A",
"f  c #946705",
"g  c #93660A",
"h  c #96600D",
"j  c #926E0C",
"k  c #9C6F0B",
"l  c #95700C",
"z  c #9E7A0F",
"x  c #816611",
"c  c #836216",
"v  c #866815",
"b  c #946F12",
"n  c #8F7413",
"m  c #8E7817",
"M  c #8C731A",
"N  c #917212",
"B  c #967312",
"V  c #917316",
"C  c #997113",
"Z  c #9D7A12",
"A  c #937218",
"S  c #9A7419",
"D  c #98781C",
"F  c #A16F05",
"G  c #B26D08",
"H  c #AD790C",
"J  c #A17F14",
"K  c #896B28",
"L  c #9B7920",
"P  c #927730",
"I  c #9A8015",
"U  c #9D8016",
"Y  c #9E8416",
"T  c #998A16",
"R  c #9B9717",
"E  c #AC810A",
"W  c #BE9006",
"Q  c #A08115",
"!  c #AC8210",
"~  c #AD8611",
"^  c #A98716",
"/  c #A58D17",
"(  c #AA8F16",
")  c #A1831E",
"_  c #A58E1C",
"`  c #AC8A1A",
"'  c #A19415",
"]  c #A29614",
"[  c #A0941E",
"{  c #AF911B",
"}  c #BD9710",
"|  c #BD9215",
" . c #BD9816",
".. c #BE9916",
"X. c #BC9E17",
"o. c #AAA21C",
"O. c #AFA71D",
"+. c #B5972B",
"@. c #B8B222",
"#. c #BFB320",
"$. c #B8B620",
"%. c #BEB924",
"&. c #CA9A0C",
"*. c #D1980E",
"=. c #C19E16",
"-. c #D0A70F",
";. c #C2AB16",
":. c #CCAC14",
">. c #C6A21C",
",. c #CAAC1C",
"<. c #DFAD14",
"1. c #D2AE1D",
"2. c #C1B615",
"3. c #C5B717",
"4. c #C7B817",
"5. c #C7B819",
"6. c #D0B61A",
"7. c #D8B019",
"8. c #D6B819",
"9. c #D5BB1E",
"0. c #DBBD1E",
"q. c #CEA625",
"w. c #C7AC23",
"e. c #CFAC20",
"r. c #C1BC21",
"t. c #C2AB37",
"y. c #DCBF33",
"u. c #D5C31A",
"i. c #D4CA19",
"p. c #D8D21E",
"a. c #DAD61F",
"s. c #DCD61D",
"d. c #F1C318",
"f. c #EAD81B",
"g. c #E4E11F",
"h. c #E7E21F",
"j. c #EEE119",
"k. c #EBE51B",
"l. c #EDEA1C",
"z. c #F1E91A",
"x. c #F6EC1B",
"c. c #F3E81C",
"v. c #F3F01F",
"b. c #FFFF1B",
"n. c #FFF91E",
"m. c #FFFF1E",
"M. c #C3C227",
"N. c #C5C126",
"B. c #CCCA26",
"V. c #D0C621",
"C. c #D4CF25",
"Z. c #D8D523",
"A. c #DED620",
"S. c #E2C82B",
"D. c #F4D223",
"F. c #FFDD23",
"G. c #EAE824",
"H. c #EEEA26",
"J. c #F4E523",
"K. c #C3B658",
"L. c #DDD04F",
"P. c #F1CC40",
"I. c #F1DD49",
"U. c #F7E351",
"Y. c #D5C275",
"T. c #E4E07B",
"R. c #F8D688",
"E. c #FFF185",
"W. c #FFFF82",
"Q. c #FFFFCC",
"!. c None",
/* pixels */
"!.!.!.!.!.!.: d 5 O !.!.!.!.!.!.",
"!.!.!.!.T I =.: q # 2 l !.!.!.!.",
"!.!.!.] u.9.1.W f B # t B !.!.!.",
"!.!.] z.c.0.>.Z p < D J a ^ !.!.",
"!.[ v.p.j.7.S.,.Z 4 3 p  .~ _ !.",
"!.O.g.A.| 8.w @ S P.U.T.` ! / !.",
"!.V.B.H &.G K W.Q.D t.+.L. .n !.",
"!.G.%.n.d.<.$ P A ) K.I.F { v !.",
"!.H.M.m.x.*.y.a Y.R.-.1 u Z x !.",
"!.o.C.a.l.J.h D.E.q.< > N y Q !.",
"!.N.Z.$.b.f.F.9 E q 5 + g 6 M !.",
"!.!.r.h.R 5.6.e.w.7 - & X C !.!.",
"!.!.@.s.k.2.4.Y m = X   8 !.!.!.",
"!.!.!.#.3.i.;.X.j % o c !.!.!.!.",
"!.!.!.!.!.( :.} k r V !.!.!.!.!.",
"!.!.!.!.!.!.!.!.!.!.!.!.!.!.!.!."
};
