/* XPM */
static char *c762d77a551242a69293ad89f1c29255[] = {
/* columns rows colors chars-per-pixel */
"64 64 256 2 ",
"   c #020002",
".  c #0A0305",
"X  c #150B04",
"o  c #1B0C09",
"O  c #160705",
"+  c #1A1309",
"@  c #181308",
"#  c #171010",
"$  c #270E07",
"%  c #231503",
"&  c #281907",
"*  c #3B1C02",
"=  c #341C07",
"-  c #281C10",
";  c #2D2408",
":  c #332303",
">  c #3A2304",
",  c #3D2B0C",
"<  c #382709",
"1  c #2C2512",
"2  c #322113",
"3  c #3B3511",
"4  c #401E00",
"5  c #432303",
"6  c #452B05",
"7  c #462A09",
"8  c #552C03",
"9  c #582B05",
"0  c #4B3609",
"q  c #5B3503",
"w  c #5D3B04",
"e  c #5D3C0A",
"r  c #553508",
"t  c #473713",
"y  c #503413",
"u  c #633B03",
"i  c #6B3D03",
"p  c #653A08",
"a  c #783704",
"s  c #5A440C",
"d  c #5A4817",
"f  c #595518",
"g  c #4F4810",
"h  c #644204",
"j  c #6C4402",
"k  c #6D4B04",
"l  c #62430C",
"z  c #6C4B0B",
"x  c #68460B",
"c  c #724602",
"v  c #744B02",
"b  c #7B4D03",
"n  c #774B0A",
"m  c #6A520B",
"M  c #765103",
"N  c #7C5202",
"B  c #73530B",
"V  c #7A580A",
"C  c #684914",
"Z  c #6A5817",
"A  c #7A5A15",
"S  c #784C12",
"D  c #6A6517",
"F  c #786716",
"G  c #7B7519",
"H  c #7B620A",
"J  c #796927",
"K  c #5E5520",
"L  c #833A05",
"P  c #864803",
"I  c #964805",
"U  c #825402",
"Y  c #835B03",
"T  c #8C5C03",
"R  c #845D0A",
"E  c #8A5707",
"W  c #955905",
"Q  c #895E14",
"!  c #A55705",
"~  c #8C6303",
"^  c #89660B",
"/  c #936302",
"(  c #956A03",
")  c #9B6C03",
"_  c #946C0D",
"`  c #996709",
"'  c #9B7509",
"]  c #866815",
"[  c #956B15",
"{  c #877717",
"}  c #9A7313",
"|  c #9C7B15",
" . c #967817",
".. c #8C750A",
"X. c #A76808",
"o. c #B56505",
"O. c #AA7A03",
"+. c #A57708",
"@. c #B87608",
"#. c #A47916",
"$. c #AD6F14",
"%. c #90782C",
"&. c #A77C2A",
"*. c #D07B05",
"=. c #8E7C5D",
"-. c #8B8419",
";. c #978517",
":. c #99921D",
">. c #AB850B",
",. c #B88809",
"<. c #B79509",
"1. c #AC8313",
"2. c #A88A16",
"3. c #B48B14",
"4. c #B98916",
"5. c #A99719",
"6. c #B39114",
"7. c #BC9313",
"8. c #BC9A15",
"9. c #B7991B",
"0. c #A8940E",
"q. c #A9A21C",
"w. c #B8A519",
"e. c #BDB31C",
"r. c #B9B81D",
"t. c #988725",
"y. c #978E27",
"u. c #A58925",
"i. c #B38822",
"p. c #AA9723",
"a. c #B99925",
"s. c #A99035",
"d. c #A9A625",
"f. c #B9AA24",
"g. c #BAB624",
"h. c #B7A53A",
"j. c #B5AC37",
"k. c #C58606",
"l. c #C3940A",
"z. c #C79808",
"x. c #D59807",
"c. c #C29B13",
"v. c #C79916",
"b. c #CF9211",
"n. c #CCA50D",
"m. c #D6A709",
"M. c #CBA314",
"N. c #C8A818",
"B. c #D5AA16",
"V. c #CDB51C",
"C. c #C7BA1B",
"Z. c #D5B61D",
"A. c #DBBB1C",
"S. c #D6B717",
"D. c #E4AD0B",
"F. c #E4B80C",
"G. c #E6B816",
"H. c #F1B719",
"J. c #F3AD10",
"K. c #C99728",
"L. c #C8A723",
"P. c #D6A92A",
"I. c #C9B724",
"U. c #D5B422",
"Y. c #D9B926",
"T. c #D9BA35",
"R. c #CCB136",
"E. c #E3BA25",
"W. c #E9B732",
"Q. c #CAC31B",
"!. c #CAC81D",
"~. c #D7C81B",
"^. c #DCD61C",
"/. c #EDCC1C",
"(. c #E7C71A",
"). c #F2CB1B",
"_. c #F8C816",
"`. c #E3D31C",
"'. c #EAD91B",
"]. c #F1D41C",
"[. c #F4DD1B",
"{. c #FCDC1C",
"}. c #F9D619",
"|. c #F6CA0B",
" X c #E5E31B",
".X c #ECE51B",
"XX c #EFEE1B",
"oX c #EBE716",
"OX c #FDE41C",
"+X c #F3EB1C",
"@X c #FDED1B",
"#X c #F8E519",
"$X c #F3F31C",
"%X c #FDF41B",
"&X c #FEFD1B",
"*X c #FDF717",
"=X c #CBC727",
"-X c #D7C926",
";X c #DBD726",
":X c #D7C538",
">X c #ECCC22",
",X c #E5C725",
"<X c #F3CB26",
"1X c #EAD625",
"2X c #F3D322",
"3X c #F9DA24",
"4X c #E5CA38",
"5X c #F9DA36",
"6X c #EADA33",
"7X c #EAE423",
"8X c #FCEB22",
"9X c #F7E526",
"0X c #EDF327",
"qX c #FEFE23",
"wX c #FEFE2B",
"eX c #F7F526",
"rX c #E9E838",
"tX c #FAE835",
"yX c #FEFE33",
"uX c #F8F638",
"iX c #E4F636",
"pX c #DEE01F",
"aX c #B2954A",
"sX c #B4A647",
"dX c #BAAD6A",
"fX c #A08F67",
"gX c #CDB64B",
"hX c #CBB86F",
"jX c #D5C449",
"kX c #D6CD4E",
"lX c #F7DC49",
"zX c #E7D14B",
"xX c #F8E446",
"cX c #FCEC53",
"vX c #F7E957",
"bX c #F8F358",
"nX c #ECE94A",
"mX c #D5C976",
"MX c #EFD46A",
"NX c #FBEA68",
"BX c #FAF369",
"VX c #FCE67A",
"CX c #F8F676",
"ZX c #EFF672",
"AX c #FCE889",
"SX c #F7F587",
"DX c #FCE698",
"FX c #F8F694",
"GX c #EBF191",
"HX c #FDE8A7",
"JX c #FEFAA4",
"KX c #FDE9B7",
"LX c #EADEA2",
"PX c #FEE9C7",
"IX c #FDF3C9",
"UX c None",
/* pixels */
"UXUXUXUXUXUXUXUXUXUXUXUXUXUXUXUXUXUXUXUXUXUXUXUXUXUXUXUXUXUXUXUXUXUXUXUXUXUXUXUXUXUXUXUXUXUXUXUXUXUXUXUXUXUXUXUXUXUXUXUXUXUXUXUX",
"UXUXUXUXUXUXUXUXUXUXUXUXUXUXUXUXUXUXUXUXUXUXUXUXUXUXUXUXUXUXUXUXUXUXUXUXUXUXUXUXUXUXUXUXUXUXUXUXUXUXUXUXUXUXUXUXUXUXUXUXUXUXUXUX",
"UXUXUXUXUXUXUXUXUXUXUXUXUXUXUXUXUXUXUXUXUXUXUXUXUXUXUXUXUXUXUXUXUXUXUXUXUXUXUXUXUXUXUXUXUXUXUXUXUXUXUXUXUXUXUXUXUXUXUXUXUXUXUXUX",
"UXUXUXUXUXUXUXUXUXUXUXUXUXUXUXUXUXUXUXUXUXUXUXUXUXUXUXM.n.l.>.+.' ) T B UXUXUXUXUXUXUXUXUXUXUXUXUXUXUXUXUXUXUXUXUXUXUXUXUXUXUXUX",
"UXUXUXUXUXUXUXUXUXUXUXUXUXUXUXUXUXUXUXUXUXUXUX1XA.6.] s & X . O O o = 8 s h U R UXUXUXUXUXUXUXUXUXUXUXUXUXUXUXUXUXUXUXUXUXUXUXUX",
"UXUXUXUXUXUXUXUXUXUXUXUXUXUXUXUXUXUXUXUX5X,X;.=   ; s ..8.n.n.x.l.l.l.#.H 0 1 o w T [ UXUXUXUXUXUXUXUXUXUXUXUXUXUXUXUXUXUXUXUXUX",
"UXUXUXUXUXUXUXUXUXUXUXUXUXUXUXUXUXUXtXV.0   , | >X(.S.n.,.z.H ( ` T U b b U T a.V < 9 ~ +.UXUXUXUXUXUXUXUXUXUXUXUXUXUXUXUXUXUXUX",
"UXUXUXUXUXUXUXUXUXUXUXUXUXUXUXUX%X~.3   m >X>X~.E.>.B.m e C H : T o E U % b b P b E 5.B p +.6.UXUXUXUXUXUXUXUXUXUXUXUXUXUXUXUXUX",
"UXUXUXUXUXUXUXUXUXUXUXUXUXUXUX@XD   s }.3X>XU.6.8.] 6.6 <.+ ..X ,.& / v % E > $ Y U W U 0.C V ,.UXUXUXUXUXUXUXUXUXUXUXUXUXUXUXUX",
"UXUXUXUXUXUXUXUXUXUXUXUXUXqX^.. ; /.@XOX .3X2.;.>X9.^ ] H y 0 h O.X / T = 8 h 2 w x * ' O.Y >.k ,.I.UXUXUXUXUXUXUXUXUXUXUXUXUXUX",
"UXUXUXUXUXUXUXUXUXUXUXUXqX5.  F *X[.{.w.-.f.2X| L.A.R S.8.z.l.O.) ) T P u q 0 e = V p & 6 @.) #.A ` U.UXUXUXUXUXUXUXUXUXUXUXUXUX",
"UXUXUXUXUXUXUXUXUXUXUXqXG . S.&X X{ ~.Z.A.{ 2XN.U.A.S.B.<.>.) ( / ~ H N j c n b 5 , i R & +.O.<.Q  .T U.UXUXUXUXUXUXUXUXUXUXUXUX",
"UXUXUXUXUXUXUXUXUXUX&XG X '.*Xq.+XF ~.G @X6.>X`.,XY.v.^ ' O.O.) ( ~ 1.L.V.U.[ N c Y > n z Y . ` M.R t.U -XUXUXUXUXUXUXUXUXUXUXUX",
"UXUXUXUXUXUXUXUXUXqX-.O .X&X*X2.~.#XZ.S.3X[.1XY.L.<XZ.B.M.c.,.,.) ( T U j k 9.lXT.W N V ) B B >.7 n.V u.V >XUXUXUXUXUXUXUXUXUXUX",
"UXUXUXUXUXUXUXUXuXe.. [.*X~.*X%X[.S.%XOX9XN.Y.,XE.E.V.7.]  .,.m 1.S ` e S v j w ;.zX:XT / V O.= N.8 F.E #._ 1XUXUXUXUXUXUXUXUXUX",
"UXUXUXUXUXUXUXUX+X. V.&XXX0.~.%X%X@X@X;Xq.OX).U.v.{ B.v.| ,.<._ O.` } W Q M , C c w R.NX>./ s ..= 1.r G.^ A v.6XUXUXUXUXUXUXUXUX",
"UXUXUXUXUXUXUXwX, ;.&XQ.r.*X$X`.%X%Xf.^.{.].A.i.}.#.[ Y.3.M.<.) ,.m _ T k _ M [ z x c } MXI.O.M ' s 7.' B.| 6 ).UXUXUXUXUXUXUXUX",
"UXUXUXUXUXUXuX:.r qX!.w.&XQ.&X&X$X5.%XOX'.@.N.1Xw.1.:XV.} c.<.,.O.) } w b [ n ` W z S b ~ jX:X@., >.7 v.B.1.;.V 9XUXUXUXUXUXUXUX",
"UXUXUXUXUXUXyX. '.&XqX.X^. .$X&XL.&X@X:. .OX} ].L.L.,XU.N.c.<.>.O.) T T T U z p ` z [ S N ~ R.:X,._ c.7.v S.^ d S.UXUXUXUXUXUXUX",
"UXUXUXUXUX0XF  .&Xr.-X$X~.~.&Xf.$X%X*X[ X.} }.L.>XE.Z.U.N.n.0.>.>.) ~ U Y N v b S p ` M A b } h.U.@.' M B.B.S. .7 3XUXUXUXUXUXUX",
"UXUXUXUXUXyXo @XqX!.!.@X^.&X;X-X%X%X@X#X>Xf.{.).(.Y.A.V.n.8.<.>.' ..Y M v c b c v v ~ C T T / 9.j.v.,.c.M.R B.~ d S.UXUXUXUXUXUX",
"UXUXUXUXuX-.| qX{ e.$X&X&XqXf.%X*X%X@X@X[.{.3X2XE.4X4X4X4X4X:XjXR.T.R.sXaX%.V z x k n b c U W W :.kX,.8.#.+.4.A.] r 7XUXUXUXUXUX",
"UXUXUXUXyX+ +XwXw.qX^.!.qXf.&X%X*X].rXrXiX0X9XH.*.W ! @.x.x.x.o.W.P.@.@.@.@.@.@.@.z.(.tXBXmXV ( ) h.Y.R | N.3.Z.] 3 }.UXUXUXUXUX",
"UXUXUXUX=Xm &XuXqX^.q.qXyXp.*X&XG.XX+X0X0X0XeX9XF.b.E W = : : : 8 x.|.zX<X5X5XcXNXBXvXCXCXGXGXN ) 9.j.v.` ( 1.' 8.C { 7XUXUXUXUX",
"UXUXUXrXD N.wXG !.^.qXqXp.wX&XG.a I o.o.k.b.z.x.@.y.C 5 > > : : : & C ! _.FXFXSXCXSXvXCXZXGXFXLXU +.sX-Xz [ B.G.).] , 8XUXUXUXUX",
"UXUXUXuX7 7XqX5.pXg.g.yX-.&X/.9 a n G.L a I ! @.W W & > ; p E.BXSXJX%.2 z D.jXCXCXNX$.NXBXL.SXZXmXW t.:X7.v.B.^ ).[ @ OXUXUXUXUX",
"UXUXUXyX7 qXwXwXe.q.wX=X=X[.a 9 a +XL I I P I I W s : % 4XVXVXAXHXHXPXdXo B.5X@.,XSXCXCXBXT.P.ZXBXhX4.s.c.3.4.Z.;.' f N.UXUXUXUX",
"UXUXUX:XF wXC.r.g.eXyXJ tX` o.P S.N.o.o.@.@.I P x.2 % 5XVXNXVXDXDXHXKXPXJ a.8 %.,X@.CXZXBX=.8.T.vX7XgXs.Z.#.v.S.G.M.d ] .XUXUXUX",
"UXUXiXy.5.yXqX:.eXpXyXJ 3.k.m.T S.D.F.F.F.F.x.a @.7 i.KXAXAXHXHXHXKXKXPXHXH.i c h u.vXnXxX%.C M.bXnXcXs.5X3.>.[ ^ /.Z g 9XUXUXUX",
"UXUXnXD `.yXg.~.7XwXyXD pXL.x.X.,.m.D.D.J.F.k.! E y 4XDXbX5X5XNXNXAXHXIXPX<XK.t.i j h h w s 5XbXvXcX@.h.-X..^ 7.M./.F < 9XUXUXUX",
"UXUXrXf 9X7XV.rXr.d.wXG qX^.)._._.)./.(.].2Xm.o.^ e l J.W.DXX + % dX%.K.<Xy aXcXAXq j k x ,XbXlXxXk./ v.j.8.8.3.M./.] 2 8XUXUXUX",
"UXUXuXt %XwXC.r.q.&XrX:.qXeX^.J.D.].).).9X3Xk.! } : 7 2 H [ ^ t., E.A Z C * P.lXCXFX8 m lXvX5XcX1./ ) a.R.1.h [ 1.6.] 2 8XUXUXUX",
"UXUXnXg @XyXeXeXuXqX=Xd.&XqX%X^.H.].H._.H.k.o.I Q 0 : < q G.U JX=.v.|.}.] 7 dX>XNXCXmXnXxXvXBXi.Y ( ( 8.d.7.[ N.E.N.] - @XUXUXUX",
"UXUXrXf %XrX;.r.5.0X;Xd.qXqX&X&X/.H.S.G._.z.5X3Xi.:.y 7.t Q %.HXIX% = _.M.=.<X<XvXBXlXxXlXcXX.M T / ( a.d.,.7.c.1.).A 1 8XUXUXUX",
"UXUXnXf %XyX7X;XwXwXrX-.&XqX&X&X&XoXP.m.D.b.@.eXy.P.3XX.9 #.A O.h.lXK.u.LXPXAX).5XxX1X|.(.#.U N T / ) 9.j.' x 1.7.S.Q 1 OXUXUXUX",
"UXUXzXD 7XyX+X=Xq.r.yXD qX&X&X&X&X*X XH.}.@.o.I ] tXlXNXxXlXn > %.NXAXKXHXHXKXD.z.n.@.>X` M U U Y / ( 2.f.>.8.v.7.G.F ; 1XUXUXUX",
"UXUXrX-.C.yXC.e.eXwXyXK qX&XqX&X&X&X&X[.M.H.@.X.l xXtXlXlXlX_._.KXKXHXKXHXHXIX*.z.c.A.W c N N U Y / T -.4X^ > ..1.G.K 0 '.UXUXUX",
"UXUXUXI.;.wXyX0X;X$XyXK qXqX&X&X&X*X%X%X+XY.D.F.@.S 3X5X` S + .   aXAXHXHXVX@.k.z.,XV j v b b b N T W t.P.V M 6.B l.f Z `.UXUXUX",
"UXUXUXuXd wXg.q.!.A eXy.;XqXqX&X&X&X%X&XeX@XT.x.! p }.}.! lX8XbXAXKXP.HXHXNXb.k.5Xc j c b U M v b Y +.y.+.+.2.^ 3.^ K 2.UXUXUXUX",
"UXUXUXyX, qXd.C.I.r.wXiXG qX&X&X$XXXXX@X@X#X8XjX*.L k.*.|.|.P & x.NXAXAXAXJ.z.5Xh j v c b M M v M N | q.( 0 1.k M.V 3 (.UXUXUXUX",
"UXUXUXnXg ^.yXwXyX^.:.yXd qX&X&XXX X X+X+X[.7X1XzXP , o._.5X5XlXNXAXVXVX5Xk.<Xh k b n j v v v c N v { L.) | x 6 M.F 2 ~.UXUXUXUX",
"UXUXUXnXd.-.qXq.:.C.eXwXd.g.qX$XXX7XpXpX.X'.1X`.2XzXP - k.}.5XxXDXDXcXJ._ P.z v b v v j v j j v M +.%.~ O.O.O.>.' ] A ,XUXUXUXUX",
"UXUXUXUXyX2 &XqXG qXqX0XyXg wX&X$XXXXX.X^.`.'.].<X2X4X&.8 2 8 q } M.C 5.b.V N N v M b j j u i j u R w.T m & < l.x K B.UXUXUXUXUX",
"UXUXUXUXnXf I.qXwX=Xw.q.wXg.q.&X&X&X$XoX X'.[.].{.2X2X(.sXW n n C P M.@.U U U b M v j i i u u p ^  .U W ) ) [ @.t.5 N.UXUXUXUXUX",
"UXUXUXUXUX;Xf qXd. .eXwXwXwXg qX&X*XXXoX+X[.#X{.{.3X2X<X,XgXW o.! P.N...T U U N c c d i p q q c Q ' U & ..e O.j %.4.N.UXUXUXUXUX",
"UXUXUXUXUXuX3 1XwX0XeX^.D qXwX, &X&X$X&X .Q.OX@XOX{.3X{.<X>XMXP E.E.V.' Y U N N s W i.&.q 9 q q | k U ! s & X.u.e N.UXUXUXUXUXUX",
"UXUXUXUXUXUX;X3 qXyXQ.;.eXqX&X;Xg &X&XF -.N.~.[ %XOX{.{.2X>X,XW.Y.Y.Y.>.Y U b y } C e u p 9 9 ^ h $ Z + W X.h y.7.9.UXUXUXUXUXUX",
"UXUXUXUXUXUXuXf I.qX7XG qXQ.Q.qXr.g &X^.q.5.C XX5.8.3X2X1X<X,X,XE.T.Q.3.~ B e #.S V d 9 q 5 i p p x X E > U h._ 1.UXUXUXUXUXUXUX",
"UXUXUXUXUXUXUXyX# @XyXwXQ..XqX&X&X=X3 &X*X X1.&Xw.| {.#.[ 5.3Xa.a.,Xu.2.A } b ] q x u u $ 7 9 e & j B - E ] u.@.UXUXUXUXUXUXUXUX",
"UXUXUXUXUXUXUXrXg.d &X=X{ e.=X .;.&X X- ^.*X~.0.&Xn q.Z.[ L.#.i.L.L.| w.^ C &.r c i 8 . * 8 7 e u . 6 M r gX7.} UXUXUXUXUXUXUXUX",
"UXUXUXUXUXUXUXUXuXF -.&XqX^.&X!.XX X*X*XD g *X*X'.6.@X{.} A.q.v.-X1.A Y.x Y E U c o . > 9 4 = ; > u q 9 gX9.~ UXUXUXUXUXUXUXUXUX",
"UXUXUXUXUXUXUXUXUXyXg p.&X.X-.:.@X!.&X*X&X^.t g [.*X{.~.A.>X>Xa.p.Y.Z.0.+.+.b $   & r 9 o % & 9 X 8 5 jX7.R UXUXUXUXUXUXUXUXUXUX",
"UXUXUXUXUXUXUXUXUXUXqXt f.&X7X&Xe.&X&XC.@X*X&X^.F @ 0 q.'.}.].).E.S.6.F : O . > w i 0 8 o 5 * o 5 4 gXq.P UXUXUXUXUXUXUXUXUXUXUX",
"UXUXUXUXUXUXUXUXUXUXUXqXe p.&X$X5.e.oX'.*XQ.8.oX@X@XC.0.l @ X . O O @ , l M U n i & 6 X & & & * 5 kXv.x d UXUXUXUXUXUXUXUXUXUXUX",
"UXUXUXUXUXUXUXUXUXUXUXUXwXA  .+X&X&Xe.m Q.e.0.'.0.#X}.|.}.}.G.B.B.l.,.>.) z U = r 7 @ % 5 = = z gXM.0 7 UXUXUXUXUXUXUXUXUXUXUXUX",
"UXUXUXUXUXUXUXUXUXUXUXUXUXeXq.C ~.&XoXoXw.'.-.`.C.{.-./.G.6.2.8.N. .v q ^ X T l + 4 & ; * 4 h.a.i.< UXUXUXUXUXUXUXUXUXUXUXUXUXUX",
"UXUXUXUXUXUXUXUXUXUXUXUXUXUX6X Xs 9.(.&X@Xw.w.e.2.n.G (.;.8.{ F V 2.l x M % 7 k   r > > ] jXL.B $ UXUXUXUXUXUXUXUXUXUXUXUXUXUXUX",
"UXUXUXUXUXUXUXUXUXUXUXUXUXUXUX=XqXw.l 9.~.&X*XV.C.*XD ^ 2.8.D { x #.h s v > s w 8 8 ' :XL.+.> o UXUXUXUXUXUXUXUXUXUXUXUXUXUXUXUX",
"UXUXUXUXUXUXUXUXUXUXUXUXUXUXUXUXUX-X&X5.h _ Z.[.*X#XA.}.G.n.M.<.,.>.` Y T N v Y U.R.a.' y o UXUXUXUXUXUXUXUXUXUXUXUXUXUXUXUXUXUX",
"UXUXUXUXUXUXUXUXUXUXUXUXUXUXUXUXUXUXUX-X*XN.H r _ <.<.G.(.G.S.B.M.6.3.>.,.c.6.#.>.R e $ UXUXUXUXUXUXUXUXUXUXUXUXUXUXUXUXUXUXUXUX",
"UXUXUXUXUXUXUXUXUXUXUXUXUXUXUXUXUXUXUXUXUXI.7X%XS._ E q 8 6 8 8 8 , 6 9 i n N H 7 - UXUXUXUXUXUXUXUXUXUXUXUXUXUXUXUXUXUXUXUXUXUX",
"UXUXUXUXUXUXUXUXUXUXUXUXUXUXUXUXUXUXUXUXUXUXUXUXUXV.I./.].G.S.c.c.k.@.` B e UXUXUXUXUXUXUXUXUXUXUXUXUXUXUXUXUXUXUXUXUXUXUXUXUXUX",
"UXUXUXUXUXUXUXUXUXUXUXUXUXUXUXUXUXUXUXUXUXUXUXUXUXUXUXUXUXUXUXUXUXUXUXUXUXUXUXUXUXUXUXUXUXUXUXUXUXUXUXUXUXUXUXUXUXUXUXUXUXUXUXUX",
"UXUXUXUXUXUXUXUXUXUXUXUXUXUXUXUXUXUXUXUXUXUXUXUXUXUXUXUXUXUXUXUXUXUXUXUXUXUXUXUXUXUXUXUXUXUXUXUXUXUXUXUXUXUXUXUXUXUXUXUXUXUXUXUX"
};
